<?xml version="1.0" encoding="UTF-8"?>
<svg width="16px" height="16px" viewBox="0 0 16 16" version="1.1" xmlns="http://www.w3.org/2000/svg" xmlns:xlink="http://www.w3.org/1999/xlink">
  <g fill="#999">
    <path d="M16,2 L16,14 C16,15.1 15.1,16 14,16 L2,16 C0.9,16 0,15.1 0,14 L0,2 C0,0.9 0.9,0 2,0 L14,0 C15.1,0 16,0.9 16,2 Z M12.3636364,13 L8.82330909,3 L7.53949091,3 L4,13 L5.32563636,13 L6.21970909,10.2625 L10.0895636,10.2625 L11.038,13 L12.3636364,13 Z M9.71738182,9.1325 L6.59774545,9.1325 L7.99029091,4.975 C8.04549091,4.81166667 8.09567273,4.58 8.14,4.27833333 L8.17010909,4.27833333 C8.22196364,4.60916667 8.26963636,4.8425 8.31396364,4.975 L9.71738182,9.1325 Z"></path>
  </g>
</svg>
