<?xml version="1.0" encoding="UTF-8"?>
<svg width="16px" height="16px" viewBox="0 0 16 16" version="1.1" xmlns="http://www.w3.org/2000/svg" xmlns:xlink="http://www.w3.org/1999/xlink">
  <g fill="#d6d6d6">
    <path d="M6.02631577,12.0121952 L8.07894736,12.0121952 C8.78947367,12.0121952 9.26315789,11.8414634 9.57894734,11.5853658 C9.89473683,11.3292683 9.97368414,10.9878048 9.97368423,10.4756098 C9.97368423,10.0487806 9.81578943,9.70731707 9.57894734,9.45121951 C9.26315786,9.19512195 8.78947365,9.10975609 8.07894736,9.10975609 L6.02631577,9.10975609 L6.02631577,12.0121952 Z M6.02631577,6.54878047 L7.76315789,6.54878047 C8.39473682,6.54878047 8.78947367,6.46341462 9.10526313,6.20731705 C9.34210523,5.9512195 9.49999997,5.60975607 9.49999998,5.18292682 C9.50000001,4.75609755 9.34210525,4.41463413 9.10526313,4.24390243 C8.86842103,3.98780487 8.39473682,3.90243901 7.84210525,3.90243901 L6.02631577,3.90243901 L6.02631577,6.54878047 Z M2,1 L9.49999998,1 C10.7631579,1 11.7105263,1.34146342 12.4210526,2.02439025 C13.0526315,2.70731706 13.4473684,3.5609756 13.4473684,4.49999999 C13.4473684,5.35365853 13.2105263,6.03658536 12.736842,6.63414634 C12.4210526,7.06097559 11.9473684,7.31707316 11.3157894,7.57317072 C12.2631579,7.82926828 12.9736841,8.25609755 13.368421,8.85365852 C13.8421053,9.45121951 13.9999999,10.2195121 14,11.0731707 C14,11.8414634 13.8421053,12.4390244 13.5263158,13.0365853 C13.2105263,13.6341463 12.8157894,14.0609756 12.2631579,14.402439 C11.9473684,14.5731707 11.3947368,14.7439024 10.7631579,14.8292683 C9.89473683,14.9146341 9.26315786,15 8.9473684,15 L2,15 L2,1 Z"></path>
  </g>
</svg>
