<?xml version="1.0" encoding="UTF-8"?>
<svg width="16px" height="16px" viewBox="0 0 16 16" version="1.1" xmlns="http://www.w3.org/2000/svg" xmlns:xlink="http://www.w3.org/1999/xlink">
  <g fill="#999">
    <path d="M1.33333333,1 L14.6666666,1 C15.0202887,1 15.3594272,1.14749958 15.6094757,1.41005051 C15.8595243,1.67260144 16,2.02869692 16,2.40000001 L16,13.6 C16,13.971303 15.8595243,14.3273986 15.6094757,14.5899495 C15.3594272,14.8525004 15.0202887,15 14.6666666,15 L1.33333333,15 C0.979711344,15 0.640572789,14.8525004 0.390524285,14.5899495 C0.140475781,14.3273986 -4.14400777e-09,13.971303 0,13.6 L0,2.40000001 C-4.14400771e-09,2.02869692 0.140475781,1.67260144 0.390524285,1.41005051 C0.640572789,1.14749958 0.979711344,1 1.33333333,1 Z M4.37866667,6.6 L2.86333333,8.19459999 C2.60098226,8.47059176 2.60098226,8.91750822 2.86333333,9.19349999 C2.98914282,9.32584193 3.15991548,9.40021123 3.338,9.40021123 C3.51608452,9.40021123 3.68685718,9.32584193 3.81266667,9.19349999 L5.80333333,7.0991 C5.92978225,6.96694407 6.00087,6.78733238 6.00087,6.59999999 C6.00087,6.4126676 5.92978225,6.23305592 5.80333333,6.1009 L3.81266667,4.00650001 C3.68685718,3.87415808 3.51608452,3.79978877 3.338,3.79978877 C3.15991548,3.79978877 2.98914282,3.87415808 2.86333333,4.00650001 C2.60098227,4.28249178 2.60098227,4.72940822 2.86333333,5.0054 L4.37866667,6.6 Z M6.66666668,7.99999999 C6.2985167,8.00005917 6.00010207,8.31344251 6.00010207,8.69999999 C6.00010207,9.08655747 6.2985167,9.39994081 6.66666668,9.39999999 L9.33333331,9.39999999 C9.70148329,9.39994081 9.99989791,9.08655747 9.99989791,8.69999999 C9.99989791,8.31344251 9.70148329,8.00005917 9.33333331,7.99999999 L6.66666668,7.99999999 Z"></path>
  </g>
</svg>
