<?xml version="1.0" encoding="UTF-8"?>
<svg width="16px" height="16px" viewBox="0 0 16 16" version="1.1" xmlns="http://www.w3.org/2000/svg" xmlns:xlink="http://www.w3.org/1999/xlink">
  <g fill="#999">
    <path d="M13.7142857,7.90070922 L11.4285714,7.90070922 C11.4285714,5.94521419 12.9634286,4.36028369 14.8571429,4.36028369 C15.488,4.36028369 16,3.83276028 16,3.18014184 C16,2.52870355 15.488,2 14.8571429,2 C11.7017143,2 9.14285714,4.64233759 9.14285714,7.90070922 L9.14285714,12.6212766 C9.14285714,13.9253333 10.1668571,14.9815602 11.4285714,14.9815602 L13.7142857,14.9815602 C14.976,14.9815602 16,13.9253333 16,12.6212766 L16,10.2609929 C16,8.95693617 14.976,7.90070922 13.7142857,7.90070922 Z M5.71428571,4.36028369 C6.34514286,4.36028369 6.85714286,3.83276028 6.85714286,3.18014184 C6.85714286,2.52870355 6.34514286,2 5.71428571,2 C2.55885714,2 0,4.64233759 0,7.90070922 L0,12.6212766 C0,13.9253333 1.02285714,14.9815602 2.28571429,14.9815602 L4.57142857,14.9815602 C5.83428571,14.9815602 6.85714286,13.9253333 6.85714286,12.6212766 L6.85714286,10.2609929 C6.85714286,8.95693617 5.83428571,7.90070922 4.57142857,7.90070922 L2.28571429,7.90070922 C2.28571429,5.94521419 3.82057143,4.36028369 5.71428571,4.36028369 Z"></path>
  </g>
</svg>
