<?xml version="1.0" encoding="UTF-8"?>
<svg width="16px" height="16px" viewBox="0 0 16 16" version="1.1" xmlns="http://www.w3.org/2000/svg" xmlns:xlink="http://www.w3.org/1999/xlink">
  <g fill="#1996f9">
    <path d="M3.62932917,13.8533541 L5.33333334,13.8533541 L5.33333334,15.9833593 L0.00832032449,15.9833593 L0.00832032449,10.6583463 L2.13832554,10.6583463 L2.13832554,12.3623505 L5.33333334,9.1673427 L6.82433697,10.6583463 L3.62932917,13.8533541 Z M12.2558502,13.8533541 L9.06084243,10.6583463 L10.5518461,9.1673427 L13.8533541,12.4688507 L13.8533541,10.6583463 L15.9833593,10.6583463 L15.9833593,15.9833593 L10.6583463,15.9833593 L10.6583463,13.8533541 L12.2558502,13.8533541 Z M3.62932917,2.13832554 L6.82433697,5.33333334 L5.33333334,6.82433697 L2.13832554,3.62932917 L2.13832554,5.33333334 L0.00832032449,5.33333334 L0.00832032449,0.00832032449 L5.33333334,0.00832032449 L5.33333334,2.13832554 L3.62932917,2.13832554 Z M12.2558502,2.13832554 L10.6583463,2.13832554 L10.6583463,0.00832032449 L15.9833593,0.00832032449 L15.9833593,5.33333334 L13.8533541,5.33333334 L13.8533541,3.5228289 L10.5518461,6.82433697 L9.06084243,5.33333334 L12.2558502,2.13832554 Z"></path>
  </g>
</svg>
