<?xml version="1.0" encoding="UTF-8"?>
<svg width="16px" height="16px" viewBox="0 0 16 16" version="1.1" xmlns="http://www.w3.org/2000/svg" xmlns:xlink="http://www.w3.org/1999/xlink">
  <g fill="#d6d6d6">
    <path d="M6.00638978,8.20766772 C5.72523962,8.20766772 5.46325879,8.15441959 5.22044728,8.04792331 C4.97763577,7.94142703 4.76677315,7.7965921 4.58785942,7.61341852 C4.40894568,7.43024494 4.26624068,7.2172524 4.1597444,6.97444088 C4.05324812,6.73162937 3.99999998,6.47390839 3.99999998,6.20127794 C3.99999998,5.92864749 4.05324812,5.67092651 4.1597444,5.428115 C4.26624068,5.18530349 4.40894568,4.97444087 4.58785942,4.79552713 C4.76677315,4.6166134 4.97763577,4.47390839 5.22044728,4.36741211 C5.46325879,4.26091584 5.72523962,4.2076677 6.00638978,4.2076677 C6.27902023,4.2076677 6.53674121,4.26091584 6.77955272,4.36741211 C7.02236423,4.47390839 7.23322684,4.6166134 7.41214058,4.79552713 C7.59105431,4.97444087 7.73375932,5.18530349 7.8402556,5.428115 C7.94675188,5.67092651 8.00000002,5.92864749 8.00000002,6.20127794 C8.00000002,6.47390839 7.94675188,6.73162937 7.8402556,6.97444088 C7.73375932,7.2172524 7.59105431,7.43024494 7.41214058,7.61341852 C7.23322684,7.7965921 7.02236423,7.94142703 6.77955272,8.04792331 C6.53674121,8.15441959 6.27902023,8.20766772 6.00638978,8.20766772 Z M16,15 L0,15 L0,1 L16,1 L16,2.55279503 L16,15 Z M14.4025559,2.59744409 L1.61022364,2.59744409 L1.61022364,12.4760384 C1.76357828,12.2545261 1.93397232,12.0330139 2.12140575,11.8115016 C2.30883919,11.5899893 2.50479233,11.3897764 2.70926517,11.2108626 C2.91373801,11.0319489 3.12460063,10.8849841 3.34185303,10.769968 C3.55910543,10.6549521 3.77848776,10.5974441 4,10.5974441 C4.26411075,10.5974441 4.49201277,10.6166134 4.68370606,10.6549521 C4.87539934,10.6932907 5.04579338,10.742279 5.19488817,10.801917 C5.34398296,10.8615549 5.48242811,10.9275825 5.61022363,11 C5.73801916,11.0724175 5.87646431,11.1384452 6.0255591,11.198083 C6.17465389,11.2577209 6.342918,11.3067093 6.53035142,11.345048 C6.71778485,11.3833866 6.94355695,11.4025559 7.20766772,11.4025559 C7.47177849,11.4025559 7.69968051,11.3237487 7.89137379,11.1661342 C8.08306707,11.0085197 8.25985088,10.8104366 8.42172522,10.571885 C8.58359957,10.3333333 8.74547391,10.0777423 8.90734822,9.80511182 C9.06922257,9.53248137 9.25239617,9.27689032 9.45686898,9.03833867 C9.66134189,8.79978701 9.90415332,8.60170394 10.1853035,8.44408946 C10.4664537,8.28647498 10.8072417,8.20766774 11.2076677,8.20766774 C11.5484558,8.20766774 11.8764643,8.31203408 12.1916933,8.52076678 C12.5069223,8.72949949 12.798722,9.00000001 13.0670926,9.33226838 C13.3354632,9.66453674 13.5825346,10.0351438 13.8083067,10.4440894 C14.0340788,10.8530351 14.2321619,11.2534611 14.4025559,11.6453674 L14.4025559,2.59744409 Z"></path>
  </g>
</svg>
