<?xml version="1.0" encoding="UTF-8"?>
<svg width="16px" height="16px" viewBox="0 0 16 16" version="1.1" xmlns="http://www.w3.org/2000/svg" xmlns:xlink="http://www.w3.org/1999/xlink">
  <g fill="#999">
    <path d="M3.46849111,6.00179641 L3.17902292,5.7117964 C2.78761982,5.32243566 2.78538534,4.68891858 3.17403208,4.29679641 C3.56267882,3.90467424 4.19503416,3.90243566 4.58643726,4.2917964 L6.70254963,6.4117964 C7.08956223,6.80183386 7.08956223,7.43175895 6.70254963,7.82179641 L4.58643726,9.93179641 C4.34249553,10.2171725 3.95947071,10.3414783 3.59484003,10.2536065 C3.23020934,10.1657347 2.94551361,9.88051592 2.85780294,9.51521536 C2.77009227,9.14991479 2.8941701,8.76618629 3.17902292,8.52179641 L3.71803267,7.98179641 L1.00302056,7.98179641 C0.451748587,7.98179641 0.00485435092,7.53408116 0.00485435092,6.98179641 C0.00485435092,6.42951166 0.451748587,5.98179641 1.00302056,5.98179641 L3.46849111,6.00179641 Z M14.9873292,0.00179640449 C15.5386012,0.00179640449 15.9854954,0.449511655 15.9854954,1.00179641 C15.9854954,1.55408116 15.5386012,2.00179641 14.9873292,2.00179641 L1.01300223,2.00179641 C0.461730251,2.00179641 0.0148360147,1.55408116 0.0148360147,1.00179641 C0.0148360147,0.449511655 0.461730251,0.00179640449 1.01300223,0.00179640449 L14.9873292,0.00179640449 Z M14.9873292,12.0017964 C15.5386012,12.0017964 15.9854954,12.4495117 15.9854954,13.0017964 C15.9854954,13.5540812 15.5386012,14.0017964 14.9873292,14.0017964 L1.01300223,14.0017964 C0.461730251,14.0017964 0.0148360147,13.5540812 0.0148360147,13.0017964 C0.0148360147,12.4495117 0.461730251,12.0017964 1.01300223,12.0017964 L14.9873292,12.0017964 Z M14.9873292,6.00179641 C15.5386012,6.00179641 15.9854954,6.44951166 15.9854954,7.0017964 C15.9854954,7.55408115 15.5386012,8.0017964 14.9873292,8.0017964 L8.99833192,8.0017964 C8.44705994,8.0017964 8.00016571,7.55408115 8.00016571,7.0017964 C8.00016571,6.44951166 8.44705994,6.00179641 8.99833192,6.00179641 L14.9873292,6.00179641 Z"></path>
  </g>
</svg>
