<?xml version="1.0" encoding="UTF-8"?>
<svg width="16px" height="16px" viewBox="0 0 16 16" version="1.1" xmlns="http://www.w3.org/2000/svg" xmlns:xlink="http://www.w3.org/1999/xlink">
  <g fill="#d6d6d6">
    <path d="M15.9934949,0.8640553 L15.9934949,1.88496987 C15.9934949,2.15721375 15.7603513,2.39542716 15.4939014,2.39542716 L6.5012197,2.39542716 C6.23476988,2.39542716 6.00162627,2.15721377 6.00162628,1.88496987 L6.00162628,0.8640553 C6.00162628,0.591811417 6.23476988,0.353598007 6.5012197,0.353598007 L15.4939014,0.353598007 C15.7603513,0.353598007 15.9934949,0.5918114 15.9934949,0.8640553 Z M6.5012197,5.79847573 L12.4963409,5.79847573 C12.7627907,5.79847573 12.9959343,5.56026233 12.9959343,5.28801843 L12.9959343,4.26710387 C12.9959343,3.99485998 12.7627907,3.75664657 12.4963409,3.75664657 L6.5012197,3.75664657 C6.23476988,3.75664657 6.00162627,3.99485997 6.00162628,4.26710387 L6.00162628,5.28801843 C6.00162628,5.56026232 6.23476988,5.79847573 6.5012197,5.79847573 Z M15.4939014,8.86121943 L6.5012197,8.86121943 C6.23476988,8.86121943 6.00162627,9.09943282 6.00162628,9.37167671 L6.00162628,10.3925913 C6.00162628,10.6648352 6.23476988,10.9030486 6.5012197,10.9030486 L15.4939014,10.9030486 C15.7603513,10.9030486 15.9934949,10.6648352 15.9934949,10.3925913 L15.9934949,9.37167671 C15.9934949,9.09943282 15.7603513,8.86121941 15.4939014,8.86121943 Z M12.4963409,12.264268 L6.5012197,12.264268 C6.23476988,12.264268 6.00162627,12.5024814 6.00162628,12.7747253 L6.00162628,13.7956398 C6.00162628,14.0678837 6.23476988,14.3060971 6.5012197,14.3060971 L12.4963409,14.3060971 C12.7627907,14.3060971 12.9959343,14.0678837 12.9959343,13.7956398 L12.9959343,12.7747253 C12.9959343,12.5024814 12.7627907,12.264268 12.4963409,12.264268 Z M0.506098554,1.37451259 L1.33875427,1.37451259 L1.33875427,5.62832329 C1.33875427,5.90056718 1.57189786,6.13878059 1.8383477,6.13878057 L2.17140998,6.13878057 C2.43785981,6.13878057 2.67100342,5.90056718 2.67100342,5.62832329 L2.67100342,0.693902869 C2.67100342,0.319567535 2.37124736,0.0132931624 2.00487885,0.0132931624 L0.506098554,0.0132931624 C0.239648727,0.0132931624 0.00650511628,0.251506555 0.00650511628,0.523750438 L0.00650511628,0.8640553 C0.00650511628,1.13629918 0.239648727,1.37451259 0.506098554,1.37451259 Z M3.33712798,8.18060971 L0.506098554,8.18060971 C0.239648727,8.18060971 0.00650511628,8.4188231 0.00650511628,8.691067 L0.00650511628,9.03137186 C0.00650511628,9.30361574 0.23964871,9.54182915 0.506098554,9.54182914 L2.67100342,9.54182914 L2.67100342,10.9030486 L0.6726297,10.9030486 C0.306261192,10.9030486 0.00650513319,11.2093229 0.00650511628,11.5836583 L0.00650511628,14.3060971 C0.00650511628,14.6804325 0.306261175,14.9867068 0.6726297,14.9867068 L3.50365913,14.9867068 C3.77010896,14.9867068 4.00325257,14.7484934 4.00325257,14.4762496 L4.00325257,14.1359447 C4.00325257,13.8637008 3.77010897,13.6254874 3.50365913,13.6254874 L1.33875427,13.6254874 L1.33875427,12.264268 L3.33712798,12.264268 C3.70349649,12.264268 4.00325255,11.9579936 4.00325257,11.5836583 L4.00325257,8.86121943 C4.00325257,8.4868841 3.70349651,8.18060972 3.33712798,8.18060971 Z"></path>
  </g>
</svg>
