<?xml version="1.0" encoding="UTF-8"?>
<svg width="16px" height="16px" viewBox="0 0 16 16" version="1.1" xmlns="http://www.w3.org/2000/svg" xmlns:xlink="http://www.w3.org/1999/xlink">
  <g fill="#d6d6d6">
    <path d="M13.5601924,15 L2.44319465,15 C2.19936032,15 2.00169355,14.7978061 2.00169355,14.5483871 C2.00169355,14.2989682 2.19936032,14.0967742 2.44319465,14.0967742 L13.5601924,14.0967742 C13.8040267,14.0967742 14.0016935,14.2989682 14.0016935,14.5483871 C14.0016935,14.7978061 13.8040267,15 13.5601924,15 Z M9.65997168,2.67187097 L9.65997168,11.0745807 C9.65997168,11.4846451 9.68881642,11.7474839 9.7483087,11.8667097 C9.80599817,12.0410323 9.9529261,12.1873549 10.1854868,12.3056774 C10.3910055,12.4230967 10.6821571,12.4809033 11.062547,12.4809033 L11.456458,12.4809033 L11.456458,13.3181936 L4.84019612,13.3181936 L4.84019612,12.4809033 L5.2782756,12.4809033 C5.62891945,12.4809033 5.90655006,12.4230967 6.11116742,12.3056774 C6.28603865,12.2180645 6.41764277,12.0572903 6.50597978,11.8215484 C6.56366926,11.7339355 6.59431679,11.4846451 6.59431679,11.0745807 L6.59431679,2.67187097 L5.71635506,2.67187097 C4.84019612,2.67187097 4.21192165,2.86245161 3.83243306,3.2436129 C3.30601657,3.77019354 2.97069648,4.48916129 2.82467,5.39870967 L2.47402615,5.39870967 L2.47402615,1 L13.822628,1 L13.822628,5.39870967 L13.4710828,5.39870967 C13.2962115,4.60658064 13.0762704,4.03483871 12.8139636,3.68348387 C12.5781565,3.32963264 12.242778,3.05393258 11.850369,2.89135484 C11.5871607,2.74503226 11.1779261,2.67187097 10.6235663,2.67187097 L9.65997168,2.67187097 Z"></path>
  </g>
</svg>
