<?xml version="1.0" encoding="UTF-8"?>
<svg width="16px" height="16px" viewBox="0 0 16 16" version="1.1" xmlns="http://www.w3.org/2000/svg" xmlns:xlink="http://www.w3.org/1999/xlink">
  <g fill="#999">
    <path d="M2.27308338,2 C1.57190823,2 1,2.59562399 1,3.32427066 L1,12.9257294 C1,13.6543759 1.57190823,14.25 2.27308338,14.25 L13.7269166,14.25 C14.4280918,14.25 15,13.6543759 15,12.9257294 L15,3.32427066 C15,2.59562399 14.4280918,2 13.7269166,2 L2.27308338,2 Z M10.1642417,8.55782009 L7.55540011,10.2354943 C7.10884163,10.5571313 6.66424174,10.3645462 6.66424174,9.78282005 L6.66424174,6.17135332 C6.66424174,5.59161263 7.04616675,5.39704213 7.55540011,5.71867908 L10.1642417,7.39635331 C10.6734751,7.71997568 10.6734751,8.23618314 10.1642417,8.55782009 Z"></path>
  </g>
</svg>
