<?xml version="1.0" encoding="UTF-8"?>
<svg width="16px" height="16px" viewBox="0 0 16 16" version="1.1" xmlns="http://www.w3.org/2000/svg" xmlns:xlink="http://www.w3.org/1999/xlink">
  <g fill="#1996f9">
    <path d="M12.568636,14.8493054 L1.38454636,14.8493054 C1.258297,14.8493054 1.15609514,14.7471035 1.15609514,14.6208542 L1.15609514,2.2965124 C1.15609514,1.98189098 0.899588515,1.72538435 0.584967102,1.72538437 C0.270345689,1.72538439 0.0138390608,1.981891 0.0138390772,2.2965124 L0.0138390772,14.8493054 C0.0138390772,15.4785482 0.524848363,15.9895575 1.15409119,15.9895575 L12.5666321,15.9895575 C12.8812535,15.9895575 13.1377601,15.7330509 13.1377601,15.4184295 C13.1397641,15.105812 12.8832574,14.8493054 12.568636,14.8493054 Z"></path>
    <path d="M14.6848157,3.27243996 L11.5947124,0.182336692 C11.4864987,0.0741229578 11.3422137,0.016008173 11.1899129,0.016008173 L3.43860332,0.016008173 C2.80936051,0.016008173 2.29835121,0.527017458 2.29835121,1.15626028 L2.29835121,12.5688012 C2.29835121,13.198044 2.80936049,13.7090533 3.43860332,13.7090533 L13.7088881,13.7090533 C14.3381309,13.7090533 14.8491402,13.198044 14.8491402,12.5688012 L14.8491402,3.67523551 C14.8511442,3.52293471 14.7910255,3.37864972 14.6848157,3.27243996 Z M11.997508,7.43265679 C11.997508,7.7472782 11.7410014,8.00378483 11.4263799,8.00378482 L9.14587574,8.00378482 L9.14587574,10.284289 C9.14587574,10.5989105 8.88936911,10.8554171 8.5747477,10.8554171 C8.26012629,10.8554171 8.00361966,10.5989105 8.00361967,10.284289 L8.00361967,8.00378482 L5.72311545,8.00378482 C5.40849404,8.00378482 5.15198741,7.74727819 5.15198741,7.43265679 C5.15198741,7.11803539 5.40849404,6.86152875 5.72311545,6.86152875 L8.00361967,6.86152875 L8.00361967,4.58102453 C8.00361967,4.26640311 8.2601263,4.00989649 8.5747477,4.0098965 C8.8893691,4.00989652 9.14587574,4.26640313 9.14587574,4.58102453 L9.14587574,6.86152875 L11.4263799,6.86152875 C11.7410014,6.86152875 11.997508,7.11803538 11.997508,7.43265679 Z"></path>
  </g>
</svg>
