<?xml version="1.0" encoding="UTF-8"?>
<svg width="16px" height="16px" viewBox="0 0 16 16" version="1.1" xmlns="http://www.w3.org/2000/svg" xmlns:xlink="http://www.w3.org/1999/xlink">
  <g fill="#d6d6d6">
    <path d="M16.0087338,5.21260963 L15.9022103,3.34383281 L15.893047,3.19946379 L15.7578881,3.2475868 L15.7109262,3.26477359 L15.7086353,3.23154579 L15.5723311,3.28196037 L11.1017808,4.85970757 L12.6194541,0.274272362 L12.6641253,0.135632268 L12.5175123,0.133340695 L12.4659687,0.131049123 L12.4877315,0.0588646116 L12.342264,0.0554272539 L10.4592036,0.000429530201 L10.446604,0.000429530201 L10.4351499,0.00272110202 C10.3715738,0.01374999 10.308815,0.0290619861 10.247302,0.0485525384 L10.2324116,0.0462609665 L10.2198121,0.0451151806 L10.2106488,0.0474067525 C9.47987472,0.180317918 8.92320358,0.650090141 8.68610291,1.33527011 L8.68495749,1.34099905 L8.68381208,1.34901955 L7.61743177,6.12350942 L4.55459508,7.20283975 C4.21854539,6.49823826 3.56024286,6.0017289 2.79059893,5.87238672 C2.02095501,5.74304455 1.23659715,5.99710824 0.688823266,6.55317914 C-0.22750783,7.48928623 -0.20689038,8.99026577 0.735785235,9.90001978 C1.67617002,10.8109196 3.18697092,10.7891496 4.1021566,9.85304256 C4.2258613,9.72586032 4.33811186,9.58263709 4.43432662,9.42108127 L7.02639821,8.76340016 L6.36778523,11.7137989 C5.79582514,12.1197139 5.43435202,12.7593999 5.38164985,13.4589272 C5.32894768,14.1584546 5.59049471,14.8451092 6.09517673,15.3321907 C7.04043526,16.2407295 8.54022087,16.2203036 9.46040268,15.2863594 C10.3767338,14.3502522 10.3561163,12.8492727 9.41344072,11.9395187 C9.22159421,11.7521432 8.99876591,11.5994078 8.75482774,11.4880791 L9.88191499,8.0369719 L14.7270157,6.80525205 L14.736179,6.80296047 L14.7464877,6.79952312 C15.4887159,6.47068256 15.8896107,5.97455726 16.0098792,5.2389627 L16.0110246,5.22750485 L16.0087338,5.21260963 Z M3.13199105,8.9146439 C2.7352808,9.31777569 2.08813172,9.32646165 1.68075168,8.93412226 C1.48585129,8.74607908 1.37405628,8.48798752 1.37018527,8.21714423 C1.36631426,7.94630094 1.47068758,7.68511781 1.66013423,7.4915778 C2.05718439,7.08860232 2.70419392,7.07941467 3.11251902,7.47095365 C3.30677331,7.65965725 3.41799525,7.91791686 3.42164827,8.18875803 C3.42530129,8.45959921 3.32108521,8.72076646 3.13199105,8.9146439 Z M8.49252796,14.3456691 C8.09581771,14.7488009 7.44866863,14.7574868 7.04128859,14.3651474 C6.84647309,14.1767526 6.73485863,13.9183855 6.73120307,13.647356 C6.72754751,13.3763265 6.83215307,13.1150411 7.02181655,12.9214572 C7.41834258,12.5193686 8.06411699,12.5101839 8.47191051,12.9008331 C8.66666908,13.089426 8.77832273,13.3478444 8.78219159,13.6189678 C8.78606046,13.8900911 8.68182593,14.1515922 8.49252796,14.3456691 Z"></path>
  </g>
</svg>
