<?xml version="1.0" encoding="UTF-8"?>
<svg width="16px" height="16px" viewBox="0 0 16 16" version="1.1" xmlns="http://www.w3.org/2000/svg" xmlns:xlink="http://www.w3.org/1999/xlink">
  <g fill="#999">
    <path d="M1.99837373,4.45487946 C1.99837373,4.71352469 1.76523014,4.93983928 1.49878029,4.93983927 L0.499593438,4.93983927 C0.233143611,4.93983927 0,4.71352469 0,4.45487946 L0,3.48495982 C0,3.22631459 0.233143611,3 0.499593438,3 L1.49878029,3 C1.76523012,3 1.99837373,3.22631457 1.99837373,3.48495982 L1.99837373,4.45487946 Z M15.9869898,3.48500002 C15.9869898,3.22633335 15.7538462,3 15.4873963,3 L3.8302163,3 C3.56376647,3 3.33062286,3.22633333 3.33062286,3.48500002 L3.33062286,4.45500005 C3.33062286,4.71366672 3.56376646,4.94000007 3.8302163,4.94000006 L15.4873963,4.94000006 C15.7538462,4.94000006 15.9869898,4.71366672 15.9869898,4.45500005 L15.9869898,3.48500002 Z M1.99837373,8.01496002 C1.99837373,7.75631478 1.76523014,7.53000019 1.49878029,7.53000021 L0.499593438,7.53000021 C0.233143611,7.53000021 0,7.75631478 0,8.01496002 L0,8.98487966 C0,9.2435249 0.233143594,9.46983949 0.499593438,9.46983947 L1.49878029,9.46983947 C1.76523012,9.46983947 1.99837373,9.2435249 1.99837373,8.98487966 L1.99837373,8.01496002 Z M14.6547406,8.01496002 C14.6547406,7.75631478 14.421597,7.53000019 14.1551472,7.53000021 L3.8302163,7.53000021 C3.56376647,7.53000021 3.33062286,7.75631478 3.33062286,8.01496002 L3.33062286,8.98487966 C3.33062286,9.2435249 3.56376646,9.46983949 3.8302163,9.46983947 L14.1551472,9.46983947 C14.421597,9.46983947 14.6547406,9.2435249 14.6547406,8.98487966 L14.6547406,8.01496002 Z M1.99837373,12.5449602 C1.99837373,12.286315 1.76523014,12.0600004 1.49878029,12.0600004 L0.499593438,12.0600004 C0.233143611,12.0600004 0,12.286315 0,12.5449602 L0,13.5148798 C0,13.7735251 0.233143594,13.9998397 0.499593438,13.9998397 L1.49878029,13.9998397 C1.76523012,13.9998397 1.99837373,13.7735251 1.99837373,13.5148798 L1.99837373,12.5449602 Z M15.9869898,12.5449602 C15.9869898,12.286315 15.7538462,12.0600004 15.4873963,12.0600004 L3.8302163,12.0600004 C3.56376647,12.0600004 3.33062286,12.286315 3.33062286,12.5449602 L3.33062286,13.5148798 C3.33062286,13.7735251 3.56376646,13.9998397 3.8302163,13.9998397 L15.4873963,13.9998397 C15.7538462,13.9998397 15.9869898,13.7735251 15.9869898,13.5148798 L15.9869898,12.5449602 Z"></path>
  </g>
</svg>
