<?xml version="1.0" encoding="UTF-8"?>
<svg width="16px" height="16px" viewBox="0 0 16 16" version="1.1" xmlns="http://www.w3.org/2000/svg" xmlns:xlink="http://www.w3.org/1999/xlink">
  <g fill="#d6d6d6">
    <path d="M9.83132531,13.923077 C9.42048193,13.923077 9.06084338,13.8913077 8.74759037,13.7830769 C8.48192772,13.74 8.32530122,13.6748462 8.27710844,13.5676923 C8.1807229,13.4497692 8.1807229,13.2123077 8.25361446,12.8461538 L10.1572289,3.15384614 C10.2289157,2.73330768 10.396988,2.46407692 10.6253012,2.32515384 C10.9644578,2.16307692 11.4704819,2.07692308 12.1692771,2.07692308 L12.7716867,2.07692308 L13,1 L5.77108434,1 L5.5427711,2.07692308 L6.14518073,2.07692308 C6.51807229,2.07692308 6.89096386,2.13076924 7.25361445,2.20615386 C7.49337349,2.28100002 7.65120482,2.34615386 7.72289156,2.43230769 C7.79457831,2.56153847 7.81927711,2.79846153 7.74759036,3.15384616 L5.8439759,12.8461538 C5.74759036,13.2876923 5.60180723,13.556923 5.37349396,13.6748462 C5.0120482,13.8369231 4.48132531,13.923077 3.80722892,13.923077 L3.20481929,13.923077 L3,15 L10.2289157,15 L10.4337349,13.923077 L9.83132531,13.923077 Z"></path>
  </g>
</svg>
