<?xml version="1.0" encoding="UTF-8"?>
<svg width="16px" height="16px" viewBox="0 0 16 16" version="1.1" xmlns="http://www.w3.org/2000/svg" xmlns:xlink="http://www.w3.org/1999/xlink">
  <g fill="#d6d6d6">
    <path d="M8,0 C12.4333333,0 16,3.56666667 16,8 C16,12.4333333 12.4333333,16 8,16 C3.56666667,16 0,12.4333333 0,8 C0,3.56666667 3.56666667,0 8,0 Z M6.62289715,10.9134985 C6.41078792,11.1256077 6.06695061,11.1256077 5.85483251,10.9134985 L5.0865015,10.1451675 C4.87439228,9.93305827 4.87439228,9.58922096 5.0865015,9.37710285 L7.01262975,7.45070823 C6.59627806,7.20546277 6.05309945,7.25815046 5.69541097,7.61556369 L4.31817049,8.99280417 C3.89394317,9.41703149 3.89394317,10.1046972 4.31817049,10.5291998 L5.47053382,11.6815631 C5.89476114,12.1057905 6.58270214,12.1057905 7.00692947,11.6815631 L8.38416994,10.3043227 C8.74158317,9.94690943 8.79427086,9.40372194 8.5490254,8.98710388 L6.62289715,10.9134985 Z M11.6818295,5.47025857 L10.5294662,4.31817049 C10.1052389,3.89394317 9.41729786,3.89394317 8.99307053,4.31817049 L7.61583006,5.69541097 C7.25841683,6.0528242 7.20572914,6.59601169 7.4509746,7.01262975 L9.37710285,5.0865015 C9.58921208,4.87439228 9.93304939,4.87439228 10.1451675,5.0865015 L10.9134985,5.85483251 C11.1256077,6.06694173 11.1256077,6.41077904 10.9134985,6.62289715 L8.98737025,8.5490254 C9.40372194,8.79400449 9.94690055,8.74158317 10.304589,8.38416994 L11.6818295,7.00692947 C12.1060568,6.58243577 12.1060568,5.89449477 11.6818295,5.47026745 Z M6.52675588,9.28096159 L6.71877204,9.47297775 C6.87792721,9.63213292 7.13566535,9.63213292 7.29482052,9.47297775 L9.473253,7.29454527 C9.63240817,7.1353901 9.63240817,6.87737671 9.473253,6.71849679 L9.28123684,6.52648063 C9.12208167,6.36732547 8.86434353,6.36732547 8.70518836,6.52648063 L6.52675588,8.70491311 C6.36760071,8.86406828 6.36760071,9.12208167 6.52675588,9.28096159 Z"></path>
  </g>
</svg>
