<?xml version="1.0" encoding="UTF-8"?>
<svg width="16px" height="16px" viewBox="0 0 16 16" version="1.1" xmlns="http://www.w3.org/2000/svg" xmlns:xlink="http://www.w3.org/1999/xlink">
  <g fill="#999">
    <path d="M14.3549846,12.956123 L15.8870711,11.4240364 C16.020296,11.2908115 16.020296,11.0909741 15.8870711,10.9577492 L14.9544967,10.0251748 C14.8212718,9.89194992 14.6214344,9.89194992 14.4882095,10.0251748 L12.9894292,11.5905676 L11.5572613,10.1583997 C11.4240364,10.0251748 11.2241991,10.0251748 11.0909742,10.1583997 L10.1583997,11.0909742 C10.0251748,11.2241991 10.0251748,11.4240364 10.1583997,11.5572613 L11.5905676,12.9894292 L10.191706,14.3882908 C10.0584811,14.5215157 10.0584811,14.7213531 10.191706,14.854578 L11.1242804,15.7871524 C11.2575053,15.9203773 11.4573427,15.9203773 11.5905676,15.7871524 L12.9894292,14.3882908 L14.4882095,15.8870711 C14.6214344,16.020296 14.8212718,16.020296 14.9544967,15.8870711 L15.8870711,14.9544967 C16.020296,14.8212718 16.020296,14.6214344 15.8870711,14.4882095 L14.3549846,12.956123 Z M0.93257441,1.99837373 L4.5296471,1.99837373 L3.16409172,9.72541877 C3.09747926,10.0584811 3.33062287,10.3249309 3.63037893,10.3249309 L5.32899658,10.3249309 C5.56214018,10.3249309 5.79528379,10.1583997 5.82859002,9.92525615 L7.22745162,1.99837373 L10.8911368,1.99837373 C11.1242804,1.99837373 11.357424,1.83184259 11.3907302,1.56539276 L11.5572613,0.566205886 C11.6238738,0.266449827 11.3907302,0 11.0576679,0 L1.06579932,0 C0.832655729,0 0.632818351,0.166531146 0.599512118,0.432980973 L0.432980973,1.43216783 C0.366368507,1.73192389 0.599512118,1.99837372 0.93257441,1.99837373 Z M8.65961945,12.1567735 C8.65961945,11.8903236 8.42647586,11.65718 8.16002603,11.65718 L0.499593438,11.65718 C0.233143611,11.65718 0,11.8903236 0,12.1567735 L0,13.1559603 C0,13.4224101 0.233143594,13.6555538 0.499593438,13.6555538 L8.16002603,13.6555538 C8.42647586,13.6555538 8.65961947,13.4224102 8.65961945,13.1559603 L8.65961945,12.1567735 Z"></path>
  </g>
</svg>
